<?xml version="1.0" encoding="UTF-8" standalone="no"?>
<svg
   xmlns:dc="http://purl.org/dc/elements/1.1/"
   xmlns:cc="http://creativecommons.org/ns#"
   xmlns:rdf="http://www.w3.org/1999/02/22-rdf-syntax-ns#"
   xmlns:svg="http://www.w3.org/2000/svg"
   xmlns="http://www.w3.org/2000/svg"
   id="svg30"
   version="1.1"
   fill-rule="evenodd"
   viewBox="0 0 841.89 595.276"
   height="595.276pt"
   width="841.89pt">
  <metadata
     id="metadata36">
    <rdf:RDF>
      <cc:Work
         rdf:about="">
        <dc:format>image/svg+xml</dc:format>
        <dc:type
           rdf:resource="http://purl.org/dc/dcmitype/StillImage" />
      </cc:Work>
    </rdf:RDF>
  </metadata>
  <defs
     id="defs34" />
  <g
     id="g28">
    <g
       id="g26">
      <path
         id="path2"
         d="M 296.306 474.245C 299.178 474.245 301.506 476.573 301.506 479.445C 301.506 482.316 299.178 484.644 296.306 484.644C 293.434 484.644 291.107 482.316 291.107 479.445C 291.107 476.573 293.434 474.245 296.306 474.245zM 319.456 459.1L 312.046 459.1L 319.257 499.79L 330.205 499.79L 337.415 459.1L 330.672 459.1L 325.064 492.292L 319.456 459.1zM 355.44 459.1L 344.691 459.1L 337.215 499.79L 343.957 499.79L 345.225 492.408L 354.238 492.408L 355.507 499.79L 362.917 499.79L 355.44 459.1zM 349.698 466.307L 353.237 486.885L 346.16 486.885L 349.698 466.307zM 377.137 459.1L 366.322 459.1L 366.322 499.79L 373.665 499.79L 373.665 484.503L 377.137 484.503C 384.481 484.503 388.085 480.956 388.085 474.446L 388.085 469.156C 388.085 462.646 384.481 459.1 377.137 459.1zM 377.137 464.912C 379.474 464.912 380.742 465.843 380.742 468.749L 380.742 474.853C 380.742 477.759 379.474 478.689 377.137 478.689L 373.665 478.689L 373.665 464.912L 377.137 464.912zM 399.168 464.912L 411.852 464.912L 411.852 459.1L 391.824 459.1L 391.824 499.79L 411.852 499.79L 411.852 493.977L 399.168 493.977L 399.168 482.06L 409.248 482.06L 409.248 476.248L 399.168 476.248L 399.168 464.912zM 425.805 468.866C 425.805 480.491 440.158 482.06 440.158 490.431C 440.158 493.338 438.69 494.384 436.354 494.384C 434.016 494.384 432.548 493.338 432.548 490.431L 432.548 487.525L 425.605 487.525L 425.605 490.024C 425.605 496.535 429.344 500.255 436.553 500.255C 443.764 500.255 447.502 496.535 447.502 490.024C 447.502 478.398 433.149 476.829 433.149 468.459C 433.149 465.552 434.484 464.448 436.821 464.448C 439.157 464.448 440.493 465.552 440.493 468.459L 440.493 470.144L 447.436 470.144L 447.436 468.866C 447.436 462.355 443.764 458.634 436.62 458.634C 429.477 458.634 425.805 462.355 425.805 468.866L 425.805 468.866zM 459.052 482.351L 467.397 482.351L 467.397 499.79L 474.874 499.79L 474.874 459.1L 467.397 459.1L 467.397 476.539L 459.052 476.539L 459.052 459.1L 451.709 459.1L 451.709 499.79L 459.052 499.79L 459.052 482.351zM 486.957 468.459C 486.957 465.552 488.426 464.448 490.762 464.448C 493.099 464.448 494.568 465.552 494.568 468.459L 494.568 490.431C 494.568 493.338 493.099 494.442 490.762 494.442C 488.426 494.442 486.957 493.338 486.957 490.431L 486.957 468.459zM 479.614 490.024C 479.614 496.535 483.553 500.255 490.762 500.255C 497.973 500.255 501.912 496.535 501.912 490.024L 501.912 468.866C 501.912 462.355 497.973 458.634 490.762 458.634C 483.553 458.634 479.614 462.355 479.614 468.866L 479.614 490.024zM 517.467 459.1L 506.651 459.1L 506.651 499.79L 513.995 499.79L 513.995 484.503L 517.467 484.503C 524.811 484.503 528.415 480.956 528.415 474.446L 528.415 469.156C 528.415 462.646 524.811 459.1 517.467 459.1zM 517.467 464.912C 519.803 464.912 521.073 465.843 521.073 468.749L 521.073 474.853C 521.073 477.759 519.803 478.689 517.467 478.689L 513.995 478.689L 513.995 464.912L 517.467 464.912zM 544.155 474.245C 547.026 474.245 549.354 476.573 549.354 479.445C 549.354 482.316 547.026 484.644 544.155 484.644C 541.283 484.644 538.955 482.316 538.955 479.445C 538.955 476.573 541.283 474.245 544.155 474.245z"
         style="stroke:none; fill:#2c2c2b" />
      <path
         id="path4"
         d="M 411.829 281.766L 420.23 246.695L 428.632 281.766C 428.632 286.406 424.87 290.168 420.23 290.168C 415.591 290.168 411.829 286.406 411.829 281.766zM 414.957 280.707L 417.354 270.702L 419.75 280.707C 419.75 282.03 418.677 283.104 417.354 283.104C 416.03 283.104 414.957 282.03 414.957 280.707z"
         style="stroke:none; fill:#2c2c2b" />
      <path
         id="path6"
         d="M 372.77 513.573L 379.929 513.573L 379.929 509.805L 368.625 509.805L 368.625 536.182L 379.929 536.182L 379.929 532.414L 372.77 532.414L 372.77 524.689L 378.46 524.689L 378.46 520.921L 372.77 520.921L 372.77 513.573zM 381.964 516.135C 381.964 523.672 390.066 524.689 390.066 530.115C 390.066 531.999 389.237 532.678 387.918 532.678C 386.599 532.678 385.77 531.999 385.77 530.115L 385.77 528.231L 381.851 528.231L 381.851 529.852C 381.851 534.072 383.961 536.484 388.031 536.484C 392.1 536.484 394.211 534.072 394.211 529.852C 394.211 522.315 386.109 521.298 386.109 515.872C 386.109 513.988 386.862 513.272 388.182 513.272C 389.5 513.272 390.254 513.988 390.254 515.872L 390.254 516.964L 394.173 516.964L 394.173 516.135C 394.173 511.915 392.1 509.503 388.068 509.503C 384.037 509.503 381.964 511.915 381.964 516.135L 381.964 516.135zM 395.379 513.573L 399.712 513.573L 399.712 536.182L 403.857 536.182L 403.857 513.573L 408.19 513.573L 408.19 509.805L 395.379 509.805L 395.379 513.573zM 407.739 532.188L 407.739 536.182L 411.733 536.182L 411.733 532.188L 407.739 532.188zM 422.962 516.286C 422.962 523.898 414.747 525.179 414.747 532.942L 414.747 536.182L 426.73 536.182L 426.73 532.414L 418.892 532.414C 418.854 532.226 418.854 532.037 418.854 531.849C 418.854 527.515 427.107 524.425 427.107 516.135C 427.107 511.915 424.997 509.503 420.927 509.503C 416.857 509.503 414.747 511.915 414.747 516.135L 414.747 518.698L 418.666 518.698L 418.666 515.872C 418.666 513.988 419.495 513.272 420.814 513.272C 422.133 513.272 422.962 513.912 422.962 516.286zM 433.475 515.872C 433.475 513.988 434.304 513.272 435.623 513.272C 436.942 513.272 437.771 513.988 437.771 515.872L 437.771 530.115C 437.771 531.999 436.942 532.715 435.623 532.715C 434.304 532.715 433.475 531.999 433.475 530.115L 433.475 515.872zM 429.33 529.852C 429.33 534.072 431.553 536.484 435.623 536.484C 439.693 536.484 441.916 534.072 441.916 529.852L 441.916 516.135C 441.916 511.915 439.693 509.503 435.623 509.503C 431.553 509.503 429.33 511.915 429.33 516.135L 429.33 529.852zM 447.154 516.06L 450.357 516.06L 450.357 536.182L 454.502 536.182L 454.502 509.805L 451.713 509.805C 451.072 511.576 450.357 513.121 447.154 513.121L 447.154 516.06zM 459.25 529.852C 459.25 534.072 461.473 536.484 465.543 536.484C 469.612 536.484 471.835 534.072 471.835 529.852L 471.835 525.029C 471.835 521.147 470.29 518.999 467.238 518.999C 465.392 518.999 464.111 519.828 463.395 521.336L 463.395 516.512C 463.395 513.988 464.224 513.272 465.693 513.272C 467.012 513.272 467.841 513.988 467.841 515.872L 467.841 516.814L 471.76 516.814L 471.76 516.135C 471.76 511.915 469.65 509.503 465.58 509.503C 461.284 509.503 459.25 511.915 459.25 516.362L 459.25 529.852zM 465.543 522.768C 466.861 522.768 467.69 523.484 467.69 525.368L 467.69 530.115C 467.69 531.999 466.861 532.678 465.543 532.678C 464.224 532.678 463.395 531.999 463.395 530.115L 463.395 525.368C 463.395 523.484 464.224 522.768 465.543 522.768z"
         style="stroke:none; fill:#2c2c2b" />
      <path
         id="path8"
         d="M 719.571 465.258L 720.992 446.582C 638.428 436.803 533.626 430.874 417.255 430.874C 300.884 430.874 199.727 435.638 119.469 444.841L 121.185 463.574C 201.498 454.348 300.884 449.748 417.255 449.748C 533.626 449.748 636.935 455.48 719.571 465.258z"
         style="stroke:none; fill:#2c2c2b" />
      <path
         id="path10"
         d="M 541.978 229.193L 543.14 224.835L 560.399 229.637L 559.156 233.988C 556.276 243.98 552.353 253.559 547.517 262.598C 545.428 266.501 543.168 270.3 540.75 273.986C 571.915 274.954 602.44 276.366 631.911 278.178C 667.432 280.362 701.094 283.142 733.6 286.443L 738.055 286.882L 736.125 304.855L 732.338 304.416C 700.26 301.159 666.107 298.4 630.597 296.216C 595.441 294.055 559.324 292.47 522.951 291.533L 504.486 291.058L 516.542 276.76C 522.38 269.836 527.503 262.3 531.798 254.267C 536.018 246.375 539.448 237.981 541.978 229.193zM 300.627 229.193L 299.465 224.835L 282.206 229.637L 283.448 233.988C 286.329 243.98 290.251 253.559 295.087 262.598C 297.177 266.501 299.436 270.3 301.855 273.986C 270.689 274.954 240.165 276.366 210.693 278.178C 175.172 280.362 140.796 283.142 108.29 286.443L 103.835 286.882L 105.765 304.855L 110.267 304.416C 142.345 301.159 176.497 298.4 212.007 296.216C 247.163 294.055 283.28 292.47 319.653 291.533L 338.119 291.058L 326.063 276.76C 320.225 269.836 315.101 262.3 310.806 254.267C 306.586 246.375 303.156 237.981 300.627 229.193z"
         style="stroke:none; fill:#2c2c2b" />
      <path
         id="path12"
         d="M 408.34 158.357C 419.132 122.376 383.228 103.065 407.696 74.3459C 394.242 107.428 431.887 124.718 408.34 158.357zM 417.797 164.671C 434.034 120.137 390.222 93.1729 423.154 58.7917C 403.776 99.4785 449.929 124.024 417.797 164.671zM 433.55 148.904C 444.341 112.923 408.438 93.6109 432.905 64.8925C 419.451 97.9746 457.096 115.265 433.55 148.904z"
         style="stroke:none; fill:#2c2c2b" />
      <g
         id="g18">
        <path
           id="path14"
           d="M 447.762 207.608L 504.93 264.777L 478.789 290.918L 421.62 233.75L 426.17 229.2L 476.208 279.237C 477.405 280.435 479.363 280.434 480.56 279.237L 480.56 279.237C 481.757 278.04 481.757 276.082 480.56 274.885L 430.523 224.847L 447.762 207.608zM 384.084 143.93L 410.226 170.072L 402.627 177.671L 376.485 151.529L 384.084 143.93zM 365.541 162.473L 391.682 188.615L 384.084 196.214L 357.942 170.072L 365.541 162.473zM 374.812 153.202L 400.954 179.344L 393.355 186.942L 367.214 160.8L 374.812 153.202zM 385.72 197.85L 411.862 171.708L 418.681 178.527L 392.539 204.669L 385.72 197.85zM 349.437 161.567L 375.578 135.424L 382.398 142.244L 356.256 168.386L 349.437 161.567zM 345.253 150.772L 349.572 146.453L 335.253 132.134L 346.146 121.241L 360.466 135.56L 364.934 131.092L 372.342 135.562L 349.573 158.329L 345.253 150.772z"
           style="stroke:none; fill:#2c2c2b" />
        <path
           id="path16"
           d="M 420.234 180.083L 446.376 206.225L 361.672 290.93L 335.53 264.788L 420.234 180.083zM 423.247 190.523L 423.248 190.523C 424.444 191.72 424.444 193.678 423.248 194.875L 351.563 266.559C 350.366 267.756 348.408 267.756 347.211 266.559L 347.211 266.559C 346.014 265.362 346.014 263.405 347.211 262.207L 418.895 190.523C 420.092 189.326 422.051 189.326 423.247 190.523zM 482.518 170.083L 456.376 196.225L 448.778 188.626L 474.92 162.485L 482.518 170.083zM 463.975 151.54L 437.833 177.681L 430.234 170.083L 456.376 143.941L 463.975 151.54zM 473.246 160.811L 447.105 186.953L 439.506 179.355L 465.648 153.213L 473.246 160.811zM 428.599 171.719L 454.741 197.861L 447.922 204.68L 421.78 178.538L 428.599 171.719zM 464.882 135.436L 491.024 161.577L 484.204 168.397L 458.063 142.255L 464.882 135.436zM 475.676 131.252L 479.995 135.572L 494.315 121.252L 505.208 132.145L 490.888 146.465L 495.356 150.933L 490.886 158.341L 468.119 135.573L 475.676 131.252z"
           style="stroke:none; fill:#2c2c2b" />
      </g>
      <path
         id="path20"
         d="M 107.329 319.188L 118.081 436.153L 139.499 434.184L 139.294 431.956L 120.95 433.642L 110.403 318.905L 107.329 319.188zM 139.278 398.052L 144.255 397.595C 158.07 396.325 168.139 392.598 174.503 386.207C 168.136 391.075 159.019 393.991 147.124 395.084L 139.074 395.824L 139.278 398.052zM 133.429 336.09L 138.862 335.59C 155.115 334.097 159.292 339.534 160.311 350.623L 161.106 359.281C 161.576 364.388 160.865 368.335 158.48 371.245C 163.151 368.267 164.598 363.536 163.976 356.771L 163.18 348.112C 162.161 337.023 157.985 331.586 141.731 333.08L 133.224 333.862L 133.429 336.09zM 218.496 310.624L 216.157 310.746L 189.792 429.578L 211.424 428.455L 211.994 426.064L 192.661 427.068L 218.496 310.624zM 218.74 407.301L 246.452 405.862L 253.47 426.272L 275.101 425.149L 274.336 422.827L 256.339 423.761L 249.322 403.352L 219.311 404.91L 218.74 407.301zM 229.564 348.083L 239.401 383.246L 242.922 383.063L 230.918 340.153L 229.564 348.083zM 363.862 423.045L 362.397 420.635L 342.179 421.103L 317.89 380.314L 310.112 380.494L 310.169 382.937L 315.02 382.825L 339.31 423.613L 363.862 423.045zM 340.593 377.547C 344.014 375.99 346.847 374.07 349.131 371.724C 346.574 373.639 343.517 375.196 339.925 376.448L 340.593 377.547zM 287.362 307.326L 284.436 307.393L 287.154 424.821L 308.199 424.333L 308.142 421.891L 290.023 422.31L 287.362 307.326zM 308.703 326.21L 314.775 326.069C 331.092 325.691 334.124 331.42 334.382 342.553L 334.474 346.518C 334.587 351.438 333.84 355.245 331.654 357.993C 336.077 355.278 337.497 350.66 337.343 344.007L 337.251 340.042C 336.993 328.909 333.962 323.181 317.644 323.558L 308.646 323.767L 308.703 326.21zM 415.271 424.061C 430.25 424.085 440.708 420.981 447.192 414.354C 440.647 419.257 431.081 421.571 418.141 421.551C 390.225 421.506 378.954 410.657 378.993 386.403L 379.073 336.674C 379.091 325.008 381.489 316.57 386.96 310.903C 379.45 316.461 376.225 325.65 376.203 339.184L 376.124 388.914C 376.085 413.168 387.356 424.016 415.271 424.061zM 403.222 325.338C 405.96 323.669 409.877 322.763 415.433 322.772C 431.756 322.798 434.49 329.667 434.473 340.345L 434.397 387.939C 434.389 393.093 433.564 397.231 431.17 400.189C 435.81 397.312 437.256 392.262 437.267 385.428L 437.343 337.835C 437.36 327.157 434.625 320.288 418.303 320.261C 410.402 320.249 405.814 322.084 403.222 325.338zM 529.16 307.537L 517.986 342.791L 507.54 389.371L 508.542 395.19L 520.855 340.28L 531.216 307.592L 529.16 307.537zM 468.918 305.914L 465.419 305.82L 493.974 424.09L 515.933 424.681L 516.698 422.114L 496.843 421.579L 468.918 305.914zM 592.835 428.964C 608.532 429.858 619.447 427.039 626.236 420.08C 619.387 425.199 609.354 427.231 595.705 426.454C 567.834 424.866 557.181 413.411 558.56 389.196L 561.389 339.547C 562.017 328.516 564.619 320.495 569.799 315.128C 562.69 320.364 559.255 329.15 558.519 342.058L 555.691 391.706C 554.311 415.922 564.965 427.377 592.835 428.964zM 585.744 330.021C 588.597 328.3 592.701 327.503 598.597 327.84C 614.892 328.768 617.243 335.777 616.636 346.438L 613.929 393.955C 613.652 398.815 612.699 402.732 610.44 405.529C 614.819 402.84 616.424 398.002 616.798 391.444L 619.505 343.927C 620.113 333.267 617.762 326.257 601.466 325.329C 593.2 324.858 588.454 326.614 585.744 330.021zM 659.451 314.508L 657.744 333.193L 697.089 336.786L 642.387 430.897L 715.761 437.598L 716.012 434.848L 645.256 428.386L 699.959 334.276L 660.614 330.682L 662.069 314.747L 659.451 314.508z"
         style="stroke:none; fill:#2c2c2b" />
      <path
         id="path22"
         d="M 112.709 314.525L 123.461 431.49L 144.879 429.522L 141.584 393.672L 149.635 392.932C 177.433 390.377 190.071 377.88 187.851 353.727L 186.86 342.942C 184.584 318.182 170.432 309.219 142.178 311.816L 112.709 314.525zM 139.575 373.483L 135.735 331.71L 144.242 330.928C 160.495 329.434 164.672 334.871 165.691 345.96L 166.487 354.619C 167.506 365.707 162.968 371.333 147.777 372.729L 139.575 373.483zM 242.407 304.999L 221.537 306.083L 195.172 424.916L 216.804 423.793L 221.821 402.758L 251.832 401.199L 258.85 421.609L 280.481 420.486L 242.407 304.999zM 225.933 381.923L 233.428 338.001L 245.432 380.911L 225.933 381.923zM 369.243 418.382L 342.436 374.296C 356.513 369.392 362.394 359.796 361.991 342.411L 361.85 336.311C 361.275 311.452 347.767 301.389 319.401 302.046L 289.816 302.731L 292.534 420.158L 313.579 419.671L 312.623 378.342L 320.4 378.162L 344.69 418.951L 369.243 418.382zM 312.022 358.978L 311.157 321.615L 320.155 321.406C 336.472 321.029 339.504 326.757 339.762 337.89L 339.854 341.855C 340.111 352.988 335.965 358.424 320.714 358.777L 312.022 358.978zM 420.651 419.398C 448.567 419.443 460.788 408.632 460.826 384.378L 460.906 334.649C 460.946 309.784 449.216 299.545 420.843 299.499C 392.47 299.454 381.623 309.657 381.583 334.522L 381.504 384.251C 381.465 408.505 392.736 419.354 420.651 419.398zM 420.681 400.788C 405.427 400.764 402.539 394.352 402.556 383.217L 402.633 335.623C 402.65 324.945 405.559 318.085 420.814 318.109C 437.136 318.136 439.871 325.005 439.853 335.683L 439.777 383.276C 439.76 394.412 435.936 400.812 420.681 400.788zM 534.54 302.874L 523.366 338.128L 511.052 393.038L 501.552 337.846L 492.3 301.736L 470.8 301.157L 499.354 419.427L 521.313 420.019L 556.041 303.453L 534.54 302.874zM 598.215 424.302C 626.086 425.889 638.886 415.771 640.265 391.555L 643.094 341.907C 644.508 317.082 633.362 306.21 605.035 304.597C 576.708 302.983 565.314 312.57 563.899 337.395L 561.071 387.044C 559.691 411.259 570.345 422.714 598.215 424.302zM 599.274 405.721C 584.044 404.854 581.515 398.293 582.148 387.175L 584.856 339.658C 585.463 328.998 588.747 322.309 603.977 323.177C 620.272 324.105 622.623 331.115 622.016 341.775L 619.309 389.292C 618.676 400.41 614.504 406.589 599.274 405.721zM 664.831 309.845L 663.124 328.53L 702.469 332.124L 647.767 426.234L 721.141 432.936L 722.833 414.402L 680.45 410.531L 734.406 316.2L 664.831 309.845z"
         style="stroke:none; fill:#2c2c2b" />
      <path
         id="path24"
         d="M 550.388 268.93L 591.891 232.193L 602.567 250.685L 550.388 268.93zM 290.073 268.93L 248.57 232.193L 237.894 250.685L 290.073 268.93z"
         style="stroke:none; fill:#2c2c2b" />
    </g>
  </g>
</svg>
